<svg xmlns="http://www.w3.org/2000/svg" viewBox="0 0 2228.833 2073.333" width="40" height="40">
  <g fill="#107C10">
    <path d="M1437.333 1194.667V640H768v554.667H1437.333zM1506.667 1264H768V1536h738.667V1264zM1577.333 1194.667H2141.5V640H1577.333V1194.667zM1577.333 1536V1264H2141.5V1536H1577.333zM768 1605.333H1437.333V2026.667H768V1605.333zM1577.333 1605.333H2141.5V2026.667H1577.333V1605.333z"/>
    <path d="M1437.333 46.667V570.667H768V46.667H1437.333zM1577.333 46.667V570.667H2141.5V46.667H1577.333z"/>
    <path d="M341.5 1690.667V2026.667h299.833V1690.667H341.5zM341.5 1264V1621.333h299.833V1264H341.5zM341.5 46.667V1194.667h299.833V46.667H341.5z" fill="#185C37"/>
    <text x="1050" y="1100" font-family="Arial, sans-serif" font-size="400" font-weight="bold" text-anchor="middle" fill="white">X</text>
  </g>
</svg>